<?xml version="1.0" encoding="UTF-8" standalone="no"?>
<!-- Created with Inkscape (http://www.inkscape.org/) -->

<svg
   xmlns:dc="http://purl.org/dc/elements/1.1/"
   xmlns:cc="http://creativecommons.org/ns#"
   xmlns:rdf="http://www.w3.org/1999/02/22-rdf-syntax-ns#"
   xmlns:svg="http://www.w3.org/2000/svg"
   xmlns="http://www.w3.org/2000/svg"
   xmlns:sodipodi="http://sodipodi.sourceforge.net/DTD/sodipodi-0.dtd"
   xmlns:inkscape="http://www.inkscape.org/namespaces/inkscape"
   width="1257.28"
   height="520"
   id="svg18555"
   version="1.1"
   inkscape:version="0.48.4 r9939"
   sodipodi:docname="JWT-Logo.svg">
  <defs
     id="defs18557" />
  <sodipodi:namedview
     id="base"
     pagecolor="#ffffff"
     bordercolor="#666666"
     borderopacity="1.0"
     inkscape:pageopacity="0.0"
     inkscape:pageshadow="2"
     inkscape:zoom="1.2527502"
     inkscape:cx="628.64"
     inkscape:cy="260"
     inkscape:document-units="px"
     inkscape:current-layer="layer1"
     showgrid="false"
     fit-margin-top="0"
     fit-margin-left="0"
     fit-margin-right="0"
     fit-margin-bottom="0"
     inkscape:window-width="1680"
     inkscape:window-height="990"
     inkscape:window-x="-4"
     inkscape:window-y="-4"
     inkscape:window-maximized="1" />
  <metadata
     id="metadata18560">
    <rdf:RDF>
      <cc:Work
         rdf:about="">
        <dc:format>image/svg+xml</dc:format>
        <dc:type
           rdf:resource="http://purl.org/dc/dcmitype/StillImage" />
        <dc:title></dc:title>
      </cc:Work>
    </rdf:RDF>
  </metadata>
  <g
     inkscape:label="Ebene 1"
     inkscape:groupmode="layer"
     id="layer1"
     transform="translate(-131.46211,226.32049)">
    <g
       id="g8132"
       transform="matrix(16.928324,0,0,-16.928324,286.9791,123.41906)"
       style="fill:#95a1aa;fill-opacity:1">
      <path
         inkscape:connector-curvature="0"
         d="m 0,0 0,20.069 -2.576,0 0,-19.198 c 0,-3.787 -0.984,-7.952 -6.02,-8.104 l 0,-2.234 C -3.409,-9.391 0,-5.908 0,0"
         style="fill:#95a1aa;fill-opacity:1;fill-rule:evenodd;stroke:none"
         id="path8134" />
    </g>
    <g
       id="g8136"
       transform="matrix(16.928324,0,0,-16.928324,961.89622,-216.32049)"
       style="fill:#95a1aa;fill-opacity:1">
      <path
         inkscape:connector-curvature="0"
         d="M 0,0 -2.538,0 -9.05,-17.532 -12.761,-8.141 -9.656,0 -12.194,0 -14.011,-4.923 -15.98,0 l -2.727,0 3.371,-8.444 -3.371,-9.088 -6.929,17.532 -2.727,0 8.899,-22.229 1.363,0 4.052,10.642 4.241,-10.642 1.363,0 L 0,0 z"
         style="fill:#95a1aa;fill-opacity:1;fill-rule:evenodd;stroke:none"
         id="path8138" />
    </g>
    <g
       id="g8140"
       transform="matrix(16.928324,0,0,-16.928324,1378.741,-178.48568)">
      <path
         inkscape:connector-curvature="0"
         d="m 0,0 0,2.234 -16.737,0 0,-2.234 7.081,0 0,-19.976 2.575,0 L -7.081,0 0,0 z"
         style="fill:#95a1aa;fill-opacity:1;fill-rule:evenodd;stroke:none"
         id="path8142" />
    </g>
  </g>
</svg>
